# This file uses centimeters as units for non-parametric coordinates.

mtllib up.mtl
g default
v 742.274414 -9.552917 -28.963682
v 741.887817 -18.043200 -24.638693
v 741.549011 -24.781448 -17.899141
v 741.291260 -29.108072 -9.404762
v 741.139648 -30.599554 0.012885
v 741.109131 -29.109900 9.432001
v 741.202637 -24.784922 17.930609
v 741.411133 -18.047981 24.676762
v 741.713989 -9.558540 29.010059
v 742.081787 -0.147603 30.506355
v 742.478333 9.263624 29.019274
v 742.864990 17.753902 24.694227
v 743.203735 24.492149 17.954733
v 743.461609 28.818773 9.460372
v 743.613098 30.310255 0.042706
v 743.643616 28.820599 -9.376409
v 743.550110 24.495625 -17.875015
v 743.341675 17.758688 -24.621096
v 743.038757 9.269249 -28.954470
v 742.671021 -0.141687 -30.450766
v 728.316895 -8.986051 -29.098541
v 727.930298 -17.476334 -24.773552
v 727.591492 -24.214581 -18.034002
v 727.333679 -28.541208 -9.539641
v 727.182129 -30.032688 -0.121975
v 727.151611 -28.543034 9.297140
v 727.245178 -24.218054 17.795748
v 727.453552 -17.481113 24.541882
v 727.756470 -8.991673 28.875179
v 728.124268 0.419264 30.371494
v 728.520813 9.830489 28.884396
v 728.907410 18.320770 24.559349
v 729.246216 25.059015 17.819874
v 729.504028 29.385637 9.325494
v 729.655640 30.877119 -0.092154
v 729.686096 29.387465 -9.511270
v 729.592590 25.062490 -18.009876
v 729.384155 18.325554 -24.755974
v 729.081238 9.836115 -29.089329
v 728.713501 0.425180 -30.585625
v 742.376404 -0.144645 0.027796
v 729.794128 0.366367 -0.093782
v 744.397217 -13.144077 -39.738503
v 743.866638 -24.795935 -33.802998
v 727.939941 -24.149094 -33.956890
v 728.470520 -12.497235 -39.892391
v 743.401672 -34.043335 -24.553799
v 727.474915 -33.396496 -24.707710
v 743.047852 -39.981091 -12.896348
v 727.121155 -39.334248 -13.050239
v 742.839844 -42.027958 0.028214
v 726.913147 -41.381111 -0.125678
v 742.797974 -39.983597 12.954765
v 726.871277 -39.336758 12.800872
v 742.926392 -34.048100 24.618053
v 726.999695 -33.401260 24.464163
v 743.212402 -24.802496 33.876305
v 727.285645 -24.155657 33.722397
v 743.628113 -13.151794 39.823215
v 727.701416 -12.504952 39.669319
v 744.132813 -0.236458 41.876694
v 728.206116 0.410384 41.722805
v 744.677063 12.679278 39.835857
v 728.750366 13.326120 39.681969
v 745.207703 24.331127 33.900284
v 729.280945 24.977966 33.746372
v 745.672607 33.578529 24.651155
v 729.745911 34.225372 24.497265
v 746.026428 39.516277 12.993704
v 730.099670 40.163116 12.839794
v 746.234436 41.563145 0.069143
v 730.307739 42.209988 -0.084749
v 746.276245 39.518787 -12.857425
v 730.349548 40.165627 -13.011318
v 746.147888 33.583290 -24.520699
v 730.221191 34.230133 -24.674589
v 745.861877 24.337690 -33.778858
v 729.935181 24.984533 -33.932751
v 745.446167 12.686998 -39.725857
v 729.519470 13.333840 -39.879745
v 744.941467 -0.228339 -41.779339
v 729.014771 0.418503 -41.933231
vt 0.375000 0.312500
vt 0.387500 0.312500
vt 0.387500 0.688440
vt 0.375000 0.688440
vt 0.400000 0.312500
vt 0.400000 0.688440
vt 0.412500 0.312500
vt 0.412500 0.688440
vt 0.425000 0.312500
vt 0.425000 0.688440
vt 0.437500 0.312500
vt 0.437500 0.688440
vt 0.450000 0.312500
vt 0.450000 0.688440
vt 0.462500 0.312500
vt 0.462500 0.688440
vt 0.475000 0.312500
vt 0.475000 0.688440
vt 0.487500 0.312500
vt 0.487500 0.688440
vt 0.500000 0.312500
vt 0.500000 0.688440
vt 0.512500 0.312500
vt 0.512500 0.688440
vt 0.525000 0.312500
vt 0.525000 0.688440
vt 0.537500 0.312500
vt 0.537500 0.688440
vt 0.550000 0.312500
vt 0.550000 0.688440
vt 0.562500 0.312500
vt 0.562500 0.688440
vt 0.575000 0.312500
vt 0.575000 0.688440
vt 0.587500 0.312500
vt 0.587500 0.688440
vt 0.600000 0.312500
vt 0.600000 0.688440
vt 0.612500 0.312500
vt 0.612500 0.688440
vt 0.625000 0.312500
vt 0.625000 0.688440
vt 0.668360 0.696178
vt 0.700012 0.732867
vt 0.495429 0.773536
vt 0.619779 0.667062
vt 0.559026 0.648369
vt 0.492048 0.641927
vt 0.425401 0.648369
vt 0.365609 0.667062
vt 0.318524 0.696178
vt 0.288756 0.732867
vt 0.279219 0.773536
vt 0.290845 0.814205
vt 0.322498 0.850894
vt 0.371078 0.880010
vt 0.431831 0.898703
vt 0.498809 0.905145
vt 0.565456 0.898703
vt 0.625249 0.880010
vt 0.672333 0.850893
vt 0.702102 0.814205
vt 0.711639 0.773536
vt 0.648603 0.892034
vt 0.626409 0.935591
vt 0.500000 0.837500
vt 0.591841 0.970159
vt 0.548284 0.992353
vt 0.500000 1.000000
vt 0.451716 0.992353
vt 0.408159 0.970159
vt 0.373591 0.935591
vt 0.351397 0.892034
vt 0.343750 0.843750
vt 0.351397 0.795466
vt 0.373591 0.751909
vt 0.408159 0.717341
vt 0.451716 0.695147
vt 0.500000 0.687500
vt 0.548284 0.695147
vt 0.591842 0.717341
vt 0.626409 0.751908
vt 0.648603 0.795466
vt 0.656250 0.843750
vt 0.375000 0.312500
vt 0.387500 0.312500
vt 0.387500 0.688440
vt 0.375000 0.688440
vt 0.400000 0.312500
vt 0.400000 0.688440
vt 0.412500 0.312500
vt 0.412500 0.688440
vt 0.425000 0.312500
vt 0.425000 0.688440
vt 0.437500 0.312500
vt 0.437500 0.688440
vt 0.450000 0.312500
vt 0.450000 0.688440
vt 0.462500 0.312500
vt 0.462500 0.688440
vt 0.475000 0.312500
vt 0.475000 0.688440
vt 0.487500 0.312500
vt 0.487500 0.688440
vt 0.500000 0.312500
vt 0.500000 0.688440
vt 0.512500 0.312500
vt 0.512500 0.688440
vt 0.525000 0.312500
vt 0.525000 0.688440
vt 0.537500 0.312500
vt 0.537500 0.688440
vt 0.550000 0.312500
vt 0.550000 0.688440
vt 0.562500 0.312500
vt 0.562500 0.688440
vt 0.575000 0.312500
vt 0.575000 0.688440
vt 0.587500 0.312500
vt 0.587500 0.688440
vt 0.600000 0.312500
vt 0.600000 0.688440
vt 0.612500 0.312500
vt 0.612500 0.688440
vt 0.625000 0.312500
vt 0.625000 0.688440
vn -0.003346 -0.308667 -0.951164
vn -0.016030 -0.587223 -0.809267
vn -0.016030 -0.587223 -0.809267
vn -0.003346 -0.308667 -0.951164
vn -0.016030 -0.587223 -0.809267
vn -0.027144 -0.808294 -0.588153
vn -0.027144 -0.808294 -0.588153
vn -0.016030 -0.587223 -0.809267
vn -0.027144 -0.808294 -0.588153
vn -0.035603 -0.950243 -0.309468
vn -0.035603 -0.950243 -0.309468
vn -0.027144 -0.808294 -0.588153
vn -0.035603 -0.950243 -0.309468
vn -0.040576 -0.999176 -0.000490
vn -0.040576 -0.999176 -0.000490
vn -0.035603 -0.950243 -0.309468
vn -0.040576 -0.999176 -0.000490
vn -0.041576 -0.950303 0.308537
vn -0.041576 -0.950303 0.308537
vn -0.040576 -0.999176 -0.000490
vn -0.041576 -0.950303 0.308537
vn -0.038508 -0.808409 0.587361
vn -0.038508 -0.808409 0.587361
vn -0.041576 -0.950303 0.308537
vn -0.038508 -0.808409 0.587361
vn -0.031670 -0.587380 0.808692
vn -0.031670 -0.587380 0.808692
vn -0.038508 -0.808409 0.587361
vn -0.031670 -0.587380 0.808692
vn -0.021731 -0.308852 0.950862
vn -0.021731 -0.308852 0.950862
vn -0.031670 -0.587380 0.808692
vn -0.021731 -0.308852 0.950862
vn -0.009667 -0.000097 0.999953
vn -0.009667 -0.000097 0.999953
vn -0.021731 -0.308852 0.950862
vn -0.009667 -0.000097 0.999953
vn 0.003345 0.308670 0.951163
vn 0.003345 0.308670 0.951163
vn -0.009667 -0.000097 0.999953
vn 0.003345 0.308670 0.951163
vn 0.016030 0.587223 0.809267
vn 0.016030 0.587223 0.809267
vn 0.003345 0.308670 0.951163
vn 0.016030 0.587223 0.809267
vn 0.027145 0.808293 0.588154
vn 0.027145 0.808293 0.588154
vn 0.016030 0.587223 0.809267
vn 0.027145 0.808293 0.588154
vn 0.035603 0.950243 0.309468
vn 0.035603 0.950243 0.309468
vn 0.027145 0.808293 0.588154
vn 0.035603 0.950243 0.309468
vn 0.040576 0.999176 0.000490
vn 0.040576 0.999176 0.000490
vn 0.035603 0.950243 0.309468
vn 0.040576 0.999176 0.000490
vn 0.041577 0.950303 -0.308537
vn 0.041577 0.950303 -0.308537
vn 0.040576 0.999176 0.000490
vn 0.041577 0.950303 -0.308537
vn 0.038508 0.808407 -0.587363
vn 0.038508 0.808407 -0.587363
vn 0.041577 0.950303 -0.308537
vn 0.038508 0.808407 -0.587363
vn 0.031670 0.587380 -0.808692
vn 0.031670 0.587380 -0.808692
vn 0.038508 0.808407 -0.587363
vn 0.031670 0.587380 -0.808692
vn 0.021732 0.308855 -0.950861
vn 0.021732 0.308855 -0.950861
vn 0.031670 0.587380 -0.808692
vn 0.021732 0.308855 -0.950861
vn 0.009667 0.000097 -0.999953
vn 0.009667 0.000097 -0.999953
vn 0.021732 0.308855 -0.950861
vn 0.009667 0.000097 -0.999953
vn -0.003346 -0.308667 -0.951164
vn -0.003346 -0.308667 -0.951164
vn 0.009667 0.000097 -0.999953
vn 0.999130 -0.040579 0.009654
vn 0.999130 -0.040579 0.009654
vn 0.999130 -0.040579 0.009654
vn 0.999130 -0.040579 0.009654
vn 0.999130 -0.040579 0.009654
vn 0.999130 -0.040579 0.009654
vn 0.999130 -0.040579 0.009654
vn 0.999130 -0.040579 0.009654
vn 0.999130 -0.040579 0.009654
vn 0.999130 -0.040579 0.009654
vn 0.999130 -0.040579 0.009654
vn 0.999130 -0.040579 0.009654
vn 0.999130 -0.040579 0.009654
vn 0.999130 -0.040579 0.009654
vn 0.999130 -0.040579 0.009654
vn 0.999130 -0.040579 0.009654
vn 0.999130 -0.040579 0.009654
vn 0.999130 -0.040579 0.009654
vn 0.999130 -0.040579 0.009654
vn 0.999130 -0.040579 0.009654
vn 0.999130 -0.040579 0.009654
vn 0.999130 -0.040579 0.009654
vn 0.999130 -0.040579 0.009654
vn 0.999130 -0.040579 0.009654
vn 0.999130 -0.040579 0.009654
vn 0.999130 -0.040579 0.009654
vn 0.999130 -0.040579 0.009654
vn 0.999130 -0.040579 0.009654
vn 0.999130 -0.040579 0.009654
vn 0.999130 -0.040579 0.009654
vn 0.999130 -0.040579 0.009654
vn 0.999130 -0.040579 0.009654
vn 0.999130 -0.040579 0.009654
vn 0.999130 -0.040579 0.009654
vn 0.999130 -0.040579 0.009654
vn 0.999130 -0.040579 0.009654
vn 0.999130 -0.040579 0.009654
vn 0.999130 -0.040579 0.009654
vn 0.999130 -0.040579 0.009654
vn 0.999130 -0.040579 0.009654
vn 0.999130 -0.040579 0.009654
vn 0.999130 -0.040579 0.009654
vn 0.999130 -0.040579 0.009654
vn 0.999130 -0.040579 0.009654
vn 0.999130 -0.040579 0.009654
vn 0.999130 -0.040579 0.009654
vn 0.999130 -0.040579 0.009654
vn 0.999130 -0.040579 0.009654
vn 0.999130 -0.040579 0.009654
vn 0.999130 -0.040579 0.009654
vn 0.999130 -0.040579 0.009654
vn 0.999130 -0.040579 0.009654
vn 0.999130 -0.040579 0.009654
vn 0.999130 -0.040579 0.009654
vn 0.999130 -0.040579 0.009654
vn 0.999130 -0.040579 0.009654
vn 0.999130 -0.040579 0.009654
vn 0.999130 -0.040579 0.009654
vn 0.999130 -0.040579 0.009654
vn 0.999130 -0.040579 0.009654
vn -0.997962 0.054462 0.033265
vn -0.997389 0.067029 0.026864
vn -0.999130 0.040579 -0.009654
vn -0.997389 0.067029 0.026864
vn -0.996888 0.077002 0.016889
vn -0.999130 0.040579 -0.009654
vn -0.996888 0.077002 0.016889
vn -0.996506 0.083405 0.004317
vn -0.999130 0.040579 -0.009654
vn -0.996506 0.083405 0.004317
vn -0.996282 0.085614 -0.009623
vn -0.999130 0.040579 -0.009654
vn -0.996282 0.085614 -0.009623
vn -0.996237 0.083408 -0.023564
vn -0.999130 0.040579 -0.009654
vn -0.996237 0.083408 -0.023564
vn -0.996375 0.077007 -0.036143
vn -0.999130 0.040579 -0.009654
vn -0.996375 0.077007 -0.036143
vn -0.996684 0.067036 -0.046127
vn -0.999130 0.040579 -0.009654
vn -0.996684 0.067036 -0.046127
vn -0.997132 0.054470 -0.052541
vn -0.999130 0.040579 -0.009654
vn -0.997132 0.054470 -0.052541
vn -0.997676 0.040541 -0.054756
vn -0.999130 0.040579 -0.009654
vn -0.997676 0.040541 -0.054756
vn -0.998263 0.026612 -0.052554
vn -0.999130 0.040579 -0.009654
vn -0.998263 0.026612 -0.052554
vn -0.998836 0.014045 -0.046153
vn -0.999130 0.040579 -0.009654
vn -0.998836 0.014045 -0.046153
vn -0.999337 0.004072 -0.036178
vn -0.999130 0.040579 -0.009654
vn -0.999337 0.004072 -0.036178
vn -0.999719 -0.002331 -0.023606
vn -0.999130 0.040579 -0.009654
vn -0.999719 -0.002331 -0.023606
vn -0.999943 -0.004539 -0.009666
vn -0.999130 0.040579 -0.009654
vn -0.999943 -0.004539 -0.009666
vn -0.999988 -0.002334 0.004274
vn -0.999130 0.040579 -0.009654
vn -0.999988 -0.002334 0.004274
vn -0.999850 0.004067 0.016853
vn -0.999130 0.040579 -0.009654
vn -0.999850 0.004067 0.016853
vn -0.999541 0.014038 0.026838
vn -0.999130 0.040579 -0.009654
vn -0.999541 0.014038 0.026838
vn -0.999093 0.026603 0.033252
vn -0.999130 0.040579 -0.009654
vn -0.999093 0.026603 0.033252
vn -0.998549 0.040533 0.035467
vn -0.999130 0.040579 -0.009654
vn -0.998549 0.040533 0.035467
vn -0.997962 0.054462 0.033265
vn -0.999130 0.040579 -0.009654
vn 0.982899 0.046065 0.178291
vn 0.982899 0.046065 0.178291
vn 0.982899 0.046065 0.178291
vn 0.982899 0.046065 0.178291
vn -0.999151 0.032817 -0.024893
vn -0.999151 0.032817 -0.024893
vn -0.999151 0.032817 -0.024893
vn -0.999151 0.032817 -0.024893
vn 0.985181 0.093975 0.143481
vn 0.985181 0.093975 0.143481
vn 0.985181 0.093975 0.143481
vn 0.985181 0.093975 0.143481
vn -0.999357 0.028492 -0.021751
vn -0.999357 0.028492 -0.021751
vn -0.999357 0.028492 -0.021751
vn -0.999357 0.028492 -0.021751
vn 0.987058 0.128786 0.095554
vn 0.987058 0.128786 0.095554
vn 0.987058 0.128786 0.095554
vn 0.987058 0.128786 0.095554
vn -0.999527 0.025349 -0.017423
vn -0.999527 0.025349 -0.017423
vn -0.999527 0.025349 -0.017423
vn -0.999527 0.025349 -0.017423
vn 0.988346 0.147089 0.039202
vn 0.988346 0.147089 0.039202
vn 0.988346 0.147089 0.039202
vn 0.988346 0.147089 0.039202
vn -0.999643 0.023697 -0.012336
vn -0.999643 0.023697 -0.012336
vn -0.999643 0.023697 -0.012336
vn -0.999643 0.023697 -0.012336
vn 0.988919 0.147095 -0.020059
vn 0.988919 0.147095 -0.020059
vn 0.988919 0.147095 -0.020059
vn 0.988919 0.147095 -0.020059
vn -0.999695 0.023696 -0.006986
vn -0.999695 0.023696 -0.006986
vn -0.999695 0.023696 -0.006986
vn -0.999695 0.023696 -0.006986
vn 0.988721 0.128802 -0.076430
vn 0.988721 0.128802 -0.076430
vn 0.988721 0.128802 -0.076430
vn 0.988721 0.128802 -0.076430
vn -0.999677 0.025347 -0.001897
vn -0.999677 0.025347 -0.001897
vn -0.999677 0.025347 -0.001897
vn -0.999677 0.025347 -0.001897
vn 0.987771 0.094001 -0.124390
vn 0.987771 0.094001 -0.124390
vn 0.987771 0.094001 -0.124390
vn 0.987771 0.094001 -0.124390
vn -0.999591 0.028489 0.002433
vn -0.999591 0.028489 0.002433
vn -0.999591 0.028489 0.002433
vn -0.999591 0.028489 0.002433
vn 0.986162 0.046097 -0.159248
vn 0.986162 0.046097 -0.159248
vn 0.986162 0.046097 -0.159248
vn 0.986162 0.046097 -0.159248
vn -0.999446 0.032814 0.005579
vn -0.999446 0.032814 0.005579
vn -0.999446 0.032814 0.005579
vn -0.999446 0.032814 0.005579
vn 0.984052 -0.010219 -0.177587
vn 0.984052 -0.010219 -0.177587
vn 0.984052 -0.010219 -0.177587
vn 0.984052 -0.010219 -0.177587
vn -0.999255 0.037897 0.007235
vn -0.999255 0.037897 0.007235
vn -0.999255 0.037897 0.007236
vn -0.999255 0.037897 0.007235
vn 0.981647 -0.069433 -0.177617
vn 0.981647 -0.069433 -0.177617
vn 0.981647 -0.069433 -0.177617
vn 0.981647 -0.069433 -0.177617
vn -0.999038 0.043244 0.007238
vn -0.999038 0.043244 0.007238
vn -0.999038 0.043244 0.007238
vn -0.999038 0.043244 0.007238
vn 0.979183 -0.125753 -0.159331
vn 0.979183 -0.125753 -0.159331
vn 0.979183 -0.125753 -0.159331
vn 0.979183 -0.125753 -0.159331
vn -0.998816 0.048328 0.005587
vn -0.998816 0.048328 0.005587
vn -0.998816 0.048328 0.005587
vn -0.998816 0.048328 0.005587
vn 0.976901 -0.173662 -0.124522
vn 0.976901 -0.173662 -0.124522
vn 0.976901 -0.173662 -0.124522
vn 0.976901 -0.173662 -0.124522
vn -0.998610 0.052654 0.002445
vn -0.998610 0.052654 0.002445
vn -0.998610 0.052654 0.002445
vn -0.998610 0.052654 0.002445
vn 0.975024 -0.208473 -0.076594
vn 0.975024 -0.208473 -0.076594
vn 0.975024 -0.208473 -0.076594
vn 0.975024 -0.208473 -0.076594
vn -0.998440 0.055796 -0.001882
vn -0.998440 0.055796 -0.001882
vn -0.998440 0.055796 -0.001882
vn -0.998440 0.055796 -0.001882
vn 0.973736 -0.226777 -0.020243
vn 0.973736 -0.226777 -0.020243
vn 0.973736 -0.226777 -0.020243
vn 0.973736 -0.226777 -0.020243
vn -0.998324 0.057449 -0.006969
vn -0.998324 0.057449 -0.006969
vn -0.998324 0.057449 -0.006969
vn -0.998324 0.057449 -0.006969
vn 0.973163 -0.226783 0.039019
vn 0.973163 -0.226783 0.039019
vn 0.973163 -0.226783 0.039019
vn 0.973163 -0.226783 0.039019
vn -0.998272 0.057449 -0.012319
vn -0.998272 0.057449 -0.012319
vn -0.998272 0.057449 -0.012319
vn -0.998272 0.057449 -0.012319
vn 0.973362 -0.208490 0.095389
vn 0.973362 -0.208490 0.095389
vn 0.973362 -0.208490 0.095389
vn 0.973362 -0.208490 0.095389
vn -0.998290 0.055798 -0.017408
vn -0.998290 0.055798 -0.017408
vn -0.998290 0.055798 -0.017408
vn -0.998290 0.055798 -0.017408
vn 0.974312 -0.173688 0.143350
vn 0.974312 -0.173688 0.143350
vn 0.974312 -0.173688 0.143350
vn 0.974312 -0.173688 0.143350
vn -0.998376 0.052656 -0.021739
vn -0.998376 0.052656 -0.021739
vn -0.998376 0.052656 -0.021739
vn -0.998376 0.052656 -0.021739
vn 0.975920 -0.125786 0.178206
vn 0.975920 -0.125786 0.178206
vn 0.975920 -0.125786 0.178206
vn 0.975920 -0.125786 0.178206
vn -0.998521 0.048331 -0.024885
vn -0.998521 0.048331 -0.024885
vn -0.998521 0.048331 -0.024885
vn -0.998521 0.048331 -0.024885
vn 0.978030 -0.069469 0.196547
vn 0.978030 -0.069469 0.196547
vn 0.978030 -0.069469 0.196547
vn 0.978030 -0.069469 0.196547
vn -0.998712 0.043247 -0.026541
vn -0.998712 0.043247 -0.026541
vn -0.998712 0.043247 -0.026541
vn -0.998712 0.043247 -0.026541
vn 0.980435 -0.010255 0.196576
vn 0.980435 -0.010255 0.196576
vn 0.980435 -0.010255 0.196576
vn 0.980435 -0.010255 0.196576
vn -0.998929 0.037902 -0.026544
vn -0.998929 0.037902 -0.026544
vn -0.998929 0.037902 -0.026544
vn -0.998929 0.037902 -0.026544
s off
g pointerup:pCylinder9
usemtl pointerup:initialShadingGroup
f 43/1/1 44/2/2 45/3/3 46/4/4
f 44/2/5 47/5/6 48/6/7 45/3/8
f 47/5/9 49/7/10 50/8/11 48/6/12
f 49/7/13 51/9/14 52/10/15 50/8/16
f 51/9/17 53/11/18 54/12/19 52/10/20
f 53/11/21 55/13/22 56/14/23 54/12/24
f 55/13/25 57/15/26 58/16/27 56/14/28
f 57/15/29 59/17/30 60/18/31 58/16/32
f 59/17/33 61/19/34 62/20/35 60/18/36
f 61/19/37 63/21/38 64/22/39 62/20/40
f 63/21/41 65/23/42 66/24/43 64/22/44
f 65/23/45 67/25/46 68/26/47 66/24/48
f 67/25/49 69/27/50 70/28/51 68/26/52
f 69/27/53 71/29/54 72/30/55 70/28/56
f 71/29/57 73/31/58 74/32/59 72/30/60
f 73/31/61 75/33/62 76/34/63 74/32/64
f 75/33/65 77/35/66 78/36/67 76/34/68
f 77/35/69 79/37/70 80/38/71 78/36/72
f 79/37/73 81/39/74 82/40/75 80/38/76
f 81/39/77 43/41/78 46/42/79 82/40/80
usemtl pointerup:lambert143SG
f 2/43/81 1/44/82 41/45/83
f 3/46/84 2/43/85 41/45/86
f 4/47/87 3/46/88 41/45/89
f 5/48/90 4/47/91 41/45/92
f 6/49/93 5/48/94 41/45/95
f 7/50/96 6/49/97 41/45/98
f 8/51/99 7/50/100 41/45/101
f 9/52/102 8/51/103 41/45/104
f 10/53/105 9/52/106 41/45/107
f 11/54/108 10/53/109 41/45/110
f 12/55/111 11/54/112 41/45/113
f 13/56/114 12/55/115 41/45/116
f 14/57/117 13/56/118 41/45/119
f 15/58/120 14/57/121 41/45/122
f 16/59/123 15/58/124 41/45/125
f 17/60/126 16/59/127 41/45/128
f 18/61/129 17/60/130 41/45/131
f 19/62/132 18/61/133 41/45/134
f 20/63/135 19/62/136 41/45/137
f 1/44/138 20/63/139 41/45/140
usemtl pointerup:initialShadingGroup
f 21/64/141 22/65/142 42/66/143
f 22/65/144 23/67/145 42/66/146
f 23/67/147 24/68/148 42/66/149
f 24/68/150 25/69/151 42/66/152
f 25/69/153 26/70/154 42/66/155
f 26/70/156 27/71/157 42/66/158
f 27/71/159 28/72/160 42/66/161
f 28/72/162 29/73/163 42/66/164
f 29/73/165 30/74/166 42/66/167
f 30/74/168 31/75/169 42/66/170
f 31/75/171 32/76/172 42/66/173
f 32/76/174 33/77/175 42/66/176
f 33/77/177 34/78/178 42/66/179
f 34/78/180 35/79/181 42/66/182
f 35/79/183 36/80/184 42/66/185
f 36/80/186 37/81/187 42/66/188
f 37/81/189 38/82/190 42/66/191
f 38/82/192 39/83/193 42/66/194
f 39/83/195 40/84/196 42/66/197
f 40/84/198 21/64/199 42/66/200
usemtl pointerup:lambert144SG
f 1/85/201 2/86/202 44/2/203 43/1/204
usemtl pointerup:initialShadingGroup
f 22/87/205 21/88/206 46/4/207 45/3/208
usemtl pointerup:lambert144SG
f 2/86/209 3/89/210 47/5/211 44/2/212
usemtl pointerup:initialShadingGroup
f 23/90/213 22/87/214 45/3/215 48/6/216
usemtl pointerup:lambert144SG
f 3/89/217 4/91/218 49/7/219 47/5/220
usemtl pointerup:initialShadingGroup
f 24/92/221 23/90/222 48/6/223 50/8/224
usemtl pointerup:lambert144SG
f 4/91/225 5/93/226 51/9/227 49/7/228
usemtl pointerup:initialShadingGroup
f 25/94/229 24/92/230 50/8/231 52/10/232
usemtl pointerup:lambert144SG
f 5/93/233 6/95/234 53/11/235 51/9/236
usemtl pointerup:initialShadingGroup
f 26/96/237 25/94/238 52/10/239 54/12/240
usemtl pointerup:lambert144SG
f 6/95/241 7/97/242 55/13/243 53/11/244
usemtl pointerup:initialShadingGroup
f 27/98/245 26/96/246 54/12/247 56/14/248
usemtl pointerup:lambert144SG
f 7/97/249 8/99/250 57/15/251 55/13/252
usemtl pointerup:initialShadingGroup
f 28/100/253 27/98/254 56/14/255 58/16/256
usemtl pointerup:lambert144SG
f 8/99/257 9/101/258 59/17/259 57/15/260
usemtl pointerup:initialShadingGroup
f 29/102/261 28/100/262 58/16/263 60/18/264
usemtl pointerup:lambert144SG
f 9/101/265 10/103/266 61/19/267 59/17/268
usemtl pointerup:initialShadingGroup
f 30/104/269 29/102/270 60/18/271 62/20/272
usemtl pointerup:lambert144SG
f 10/103/273 11/105/274 63/21/275 61/19/276
usemtl pointerup:initialShadingGroup
f 31/106/277 30/104/278 62/20/279 64/22/280
usemtl pointerup:lambert144SG
f 11/105/281 12/107/282 65/23/283 63/21/284
usemtl pointerup:initialShadingGroup
f 32/108/285 31/106/286 64/22/287 66/24/288
usemtl pointerup:lambert144SG
f 12/107/289 13/109/290 67/25/291 65/23/292
usemtl pointerup:initialShadingGroup
f 33/110/293 32/108/294 66/24/295 68/26/296
usemtl pointerup:lambert144SG
f 13/109/297 14/111/298 69/27/299 67/25/300
usemtl pointerup:initialShadingGroup
f 34/112/301 33/110/302 68/26/303 70/28/304
usemtl pointerup:lambert144SG
f 14/111/305 15/113/306 71/29/307 69/27/308
usemtl pointerup:initialShadingGroup
f 35/114/309 34/112/310 70/28/311 72/30/312
usemtl pointerup:lambert144SG
f 15/113/313 16/115/314 73/31/315 71/29/316
usemtl pointerup:initialShadingGroup
f 36/116/317 35/114/318 72/30/319 74/32/320
usemtl pointerup:lambert144SG
f 16/115/321 17/117/322 75/33/323 73/31/324
usemtl pointerup:initialShadingGroup
f 37/118/325 36/116/326 74/32/327 76/34/328
usemtl pointerup:lambert144SG
f 17/117/329 18/119/330 77/35/331 75/33/332
usemtl pointerup:initialShadingGroup
f 38/120/333 37/118/334 76/34/335 78/36/336
usemtl pointerup:lambert144SG
f 18/119/337 19/121/338 79/37/339 77/35/340
usemtl pointerup:initialShadingGroup
f 39/122/341 38/120/342 78/36/343 80/38/344
usemtl pointerup:lambert144SG
f 19/121/345 20/123/346 81/39/347 79/37/348
usemtl pointerup:initialShadingGroup
f 40/124/349 39/122/350 80/38/351 82/40/352
usemtl pointerup:lambert144SG
f 20/123/353 1/125/354 43/41/355 81/39/356
usemtl pointerup:initialShadingGroup
f 21/126/357 40/124/358 82/40/359 46/42/360
